<?xml version="1.0" encoding="UTF-8"?>
<svg id="Layer_7" data-name="Layer 7" xmlns="http://www.w3.org/2000/svg" viewBox="0 0 1200 1200">
  <defs>
    <style>
      .cls-1 {
        fill: none;
        stroke: #231f20;
        stroke-miterlimit: 10;
        stroke-width: 16px;
      }
    </style>
  </defs>
  <path d="M678.07,322.78c.43-8.06,5.97-14.58,12.69-15.86,8.48-1.61,18.03,5.27,19.03,15.86v550.81c-.72,7.92-6.66,14.15-13.74,15.07-8.4,1.08-16.94-5.5-17.97-15.07V322.78Z"/>
  <path d="M471.38,359.14c.43-7.21,5.97-13.04,12.69-14.18,8.48-1.44,18.03,4.72,19.03,14.18v492.68c-.72,7.09-6.66,12.66-13.74,13.48-8.4.97-16.94-4.92-17.97-13.48v-492.68Z"/>
  <path d="M745.73,428.77v330.38c1.8,7.42,8.49,12.69,16.12,12.69s14.33-5.27,16.12-12.69v-330.38c-1.6-7.77-8.54-13.34-16.39-13.22-7.65.12-14.3,5.63-15.86,13.22Z"/>
  <path d="M594.02,217.85c-23-1.39-44.68,13.31-52.33,35.95v695.13c8.3,20.46,28.36,33.74,50.22,33.3,21.11-.42,40.1-13.56,48.1-33.3V253.8c-6.82-20.42-25.15-34.68-45.99-35.95ZM609.35,944.17c-.41.82-5.7,10.82-16.92,12.16-8.89,1.06-17.79-3.77-22.2-12.16,1.23-227.83,2.47-455.66,3.7-683.5,2.39-7.92,9.77-13.33,17.97-13.22,8.02.11,15.11,5.48,17.44,13.22v683.5Z"/>
  <path d="M417.64,431.41c-7.35,0-13.85,4.91-15.86,11.98v114.18c-1.56,4.45-5.19,12.9-13.39,20.44-6.02,5.54-12.18,8.44-16.21,9.96h-142.37c-7.03,1.29-12.27,7.15-12.69,13.98-.46,7.48,4.95,14.43,12.69,15.88h142.73c3.38.77,11.43,3.07,18.68,10.22,7.45,7.36,9.81,15.66,10.57,19.03v115.59c2.3,7.51,9.39,12.46,16.92,11.98,6.81-.43,12.77-5.22,14.8-11.98v-319.28c-2.01-7.07-8.51-11.98-15.86-11.98Z"/>
  <path d="M973.39,587.79h-109.78c-2.04-.15-8.8-.9-14.8-6.34-3.96-3.59-5.9-7.68-6.87-10.64v-33.41c-.96-6.44-6.62-11.14-12.95-10.92-6.01.21-11.16,4.81-12.07,10.92-.29,40.47-.59,80.94-.88,121.4,1,6.34,6.48,11.06,12.86,11.1,6.45.04,12.03-4.7,13.04-11.1v-25.37c.44-2.3,2-8.75,7.75-14.27,5.47-5.25,11.58-6.64,13.92-7.05h109.78c5.44-1.41,9.32-6.22,9.52-11.72.2-5.81-3.75-11.1-9.52-12.6Z"/>
  <circle class="cls-1" cx="600" cy="600" r="504.3"/>
</svg>