<?xml version="1.0" encoding="UTF-8"?>
<svg id="Layer_2" data-name="Layer 2" xmlns="http://www.w3.org/2000/svg" viewBox="0 0 1200 1200">
  <defs>
    <style>
      .cls-1 {
        fill: #fff;
      }

      .cls-2 {
        fill: none;
        stroke: #fff;
        stroke-miterlimit: 10;
        stroke-width: 16px;
      }
    </style>
  </defs>
  <circle class="cls-2" cx="600" cy="600" r="471.44"/>
  <g>
    <path class="cls-1" d="M672.98,340.84c.4-7.54,5.58-13.63,11.86-14.83,7.92-1.5,16.86,4.93,17.79,14.83v514.93c-.67,7.41-6.22,13.23-12.85,14.08-7.85,1.01-15.83-5.14-16.8-14.08V340.84Z"/>
    <path class="cls-1" d="M479.76,374.84c.4-6.74,5.58-12.19,11.86-13.26,7.92-1.35,16.86,4.41,17.79,13.26v460.58c-.67,6.63-6.22,11.84-12.85,12.6-7.85.9-15.83-4.6-16.8-12.6v-460.58Z"/>
    <path class="cls-1" d="M736.24,439.93v308.86c1.68,6.94,7.94,11.86,15.07,11.86s13.39-4.92,15.07-11.86v-308.86c-1.5-7.27-7.99-12.47-15.32-12.35-7.15.11-13.37,5.27-14.83,12.35Z"/>
    <path class="cls-1" d="M594.41,242.75c-21.5-1.3-41.76,12.44-48.92,33.6v649.84c7.76,19.12,26.51,31.54,46.95,31.13,19.73-.39,37.49-12.67,44.97-31.13V276.35c-6.37-19.09-23.51-32.42-42.99-33.6ZM608.74,921.74c-.39.77-5.33,10.12-15.81,11.37-8.31.99-16.63-3.52-20.76-11.37,1.15-212.99,2.31-425.98,3.46-638.97,2.23-7.41,9.13-12.46,16.8-12.35,7.49.11,14.13,5.12,16.31,12.35v638.97Z"/>
    <path class="cls-1" d="M429.52,442.4c-6.87,0-12.95,4.59-14.83,11.2v106.74c-1.45,4.16-4.86,12.06-12.52,19.11-5.63,5.18-11.38,7.89-15.15,9.32h-133.1c-6.58,1.2-11.47,6.68-11.86,13.07-.43,6.99,4.63,13.49,11.86,14.84h133.43c3.16.72,10.69,2.87,17.46,9.55,6.97,6.88,9.17,14.64,9.88,17.79v108.06c2.15,7.02,8.78,11.65,15.81,11.2,6.37-.4,11.93-4.88,13.84-11.2v-298.48c-1.88-6.61-7.96-11.2-14.83-11.2Z"/>
    <path class="cls-1" d="M949.06,588.59h-102.62c-1.91-.14-8.23-.84-13.84-5.93-3.7-3.36-5.51-7.18-6.42-9.95v-31.23c-.9-6.02-6.19-10.42-12.11-10.21-5.62.19-10.44,4.49-11.28,10.21-.27,37.83-.55,75.66-.82,113.5.93,5.92,6.06,10.34,12.02,10.38,6.03.04,11.25-4.39,12.19-10.38v-23.72c.41-2.15,1.87-8.18,7.25-13.34,5.11-4.9,10.82-6.2,13.01-6.59h102.62c5.09-1.32,8.72-5.81,8.9-10.95.19-5.43-3.51-10.38-8.9-11.78Z"/>
  </g>
</svg>